<mxfile host="app.diagrams.net" agent="Mozilla/5.0 (Windows NT 10.0; Win64; x64) AppleWebKit/537.36 (KHTML, like Gecko) Chrome/134.0.0.0 Safari/537.36 Edg/134.0.0.0" version="26.1.1">
  <diagram id="C5RBs43oDa-KdzZeNtuy" name="Page-1">
    <mxGraphModel dx="273" dy="558" grid="0" gridSize="10" guides="1" tooltips="1" connect="1" arrows="1" fold="1" page="1" pageScale="1" pageWidth="827" pageHeight="1169" background="none" math="0" shadow="0">
      <root>
        <mxCell id="WIyWlLk6GJQsqaUBKTNV-0" />
        <mxCell id="WIyWlLk6GJQsqaUBKTNV-1" parent="WIyWlLk6GJQsqaUBKTNV-0" />
        <mxCell id="JL4R2UDuWaDVUllbGv84-5" value="Controller" style="swimlane;fontStyle=1;align=center;verticalAlign=top;childLayout=stackLayout;horizontal=1;startSize=26;horizontalStack=0;resizeParent=1;resizeParentMax=0;resizeLast=0;collapsible=1;marginBottom=0;whiteSpace=wrap;html=1;fillColor=#dae8fc;gradientColor=#7ea6e0;strokeColor=#6c8ebf;" parent="WIyWlLk6GJQsqaUBKTNV-1" vertex="1">
          <mxGeometry x="360" y="320" width="240" height="200" as="geometry" />
        </mxCell>
        <mxCell id="JL4R2UDuWaDVUllbGv84-6" value="&lt;div style=&quot;line-height: 150%;&quot;&gt;updates Model based on input&lt;/div&gt;&lt;div style=&quot;line-height: 150%;&quot;&gt;updates View based on Model changes&lt;/div&gt;" style="text;strokeColor=#666666;fillColor=#f5f5f5;align=left;verticalAlign=top;spacingLeft=4;spacingRight=4;overflow=hidden;rotatable=0;points=[[0,0.5],[1,0.5]];portConstraint=eastwest;whiteSpace=wrap;html=1;gradientColor=#b3b3b3;" parent="JL4R2UDuWaDVUllbGv84-5" vertex="1">
          <mxGeometry y="26" width="240" height="44" as="geometry" />
        </mxCell>
        <mxCell id="JL4R2UDuWaDVUllbGv84-7" value="" style="line;strokeWidth=1;fillColor=none;align=left;verticalAlign=middle;spacingTop=-1;spacingLeft=3;spacingRight=3;rotatable=0;labelPosition=right;points=[];portConstraint=eastwest;strokeColor=inherit;" parent="JL4R2UDuWaDVUllbGv84-5" vertex="1">
          <mxGeometry y="70" width="240" height="8" as="geometry" />
        </mxCell>
        <mxCell id="JL4R2UDuWaDVUllbGv84-8" value="&lt;div style=&quot;line-height: 150%;&quot;&gt;&lt;div&gt;+ handlePoachers()&lt;/div&gt;&lt;div&gt;+ manageRangers()&lt;/div&gt;+ handlePlayerInput()&lt;div&gt;&lt;span style=&quot;background-color: transparent; color: light-dark(rgb(0, 0, 0), rgb(255, 255, 255));&quot;&gt;+ managePurchases()&lt;/span&gt;&lt;/div&gt;&lt;div&gt;+ manageGameSpeed()&lt;/div&gt;&lt;div&gt;&lt;span style=&quot;background-color: transparent; color: light-dark(rgb(0, 0, 0), rgb(255, 255, 255));&quot;&gt;+ updateDayNightCycle()&lt;/span&gt;&lt;/div&gt;&lt;/div&gt;" style="text;strokeColor=#666666;fillColor=#f5f5f5;align=left;verticalAlign=top;spacingLeft=4;spacingRight=4;overflow=hidden;rotatable=0;points=[[0,0.5],[1,0.5]];portConstraint=eastwest;whiteSpace=wrap;html=1;fontColor=#333333;" parent="JL4R2UDuWaDVUllbGv84-5" vertex="1">
          <mxGeometry y="78" width="240" height="122" as="geometry" />
        </mxCell>
        <mxCell id="JL4R2UDuWaDVUllbGv84-9" value="View" style="swimlane;fontStyle=1;align=center;verticalAlign=top;childLayout=stackLayout;horizontal=1;startSize=26;horizontalStack=0;resizeParent=1;resizeParentMax=0;resizeLast=0;collapsible=1;marginBottom=0;whiteSpace=wrap;html=1;fillColor=#fff2cc;gradientColor=#ffd966;strokeColor=#d6b656;" parent="WIyWlLk6GJQsqaUBKTNV-1" vertex="1">
          <mxGeometry x="360" y="640" width="240" height="180" as="geometry" />
        </mxCell>
        <mxCell id="JL4R2UDuWaDVUllbGv84-10" value="&lt;div style=&quot;line-height: 150%;&quot;&gt;renders data from Model&lt;div&gt;cannot see the Controller&lt;/div&gt;&lt;/div&gt;" style="text;strokeColor=#666666;fillColor=#f5f5f5;align=left;verticalAlign=top;spacingLeft=4;spacingRight=4;overflow=hidden;rotatable=0;points=[[0,0.5],[1,0.5]];portConstraint=eastwest;whiteSpace=wrap;html=1;gradientColor=#b3b3b3;" parent="JL4R2UDuWaDVUllbGv84-9" vertex="1">
          <mxGeometry y="26" width="240" height="44" as="geometry" />
        </mxCell>
        <mxCell id="JL4R2UDuWaDVUllbGv84-11" value="" style="line;strokeWidth=1;fillColor=none;align=left;verticalAlign=middle;spacingTop=-1;spacingLeft=3;spacingRight=3;rotatable=0;labelPosition=right;points=[];portConstraint=eastwest;strokeColor=inherit;" parent="JL4R2UDuWaDVUllbGv84-9" vertex="1">
          <mxGeometry y="70" width="240" height="8" as="geometry" />
        </mxCell>
        <mxCell id="JL4R2UDuWaDVUllbGv84-12" value="&lt;div style=&quot;line-height: 150%;&quot;&gt;&lt;div&gt;+ renderUI()&lt;/div&gt;+ renderMap()&lt;div&gt;&lt;div&gt;+ renderTourists()&lt;/div&gt;&lt;div&gt;+ renderAnimals()&lt;/div&gt;&lt;div&gt;&lt;span style=&quot;background-color: transparent; color: light-dark(rgb(0, 0, 0), rgb(255, 255, 255));&quot;&gt;+ renderMiniMap()&lt;/span&gt;&lt;/div&gt;&lt;/div&gt;&lt;/div&gt;" style="text;strokeColor=#666666;fillColor=#f5f5f5;align=left;verticalAlign=top;spacingLeft=4;spacingRight=4;overflow=hidden;rotatable=0;points=[[0,0.5],[1,0.5]];portConstraint=eastwest;whiteSpace=wrap;html=1;fontColor=#333333;" parent="JL4R2UDuWaDVUllbGv84-9" vertex="1">
          <mxGeometry y="78" width="240" height="102" as="geometry" />
        </mxCell>
        <mxCell id="JL4R2UDuWaDVUllbGv84-14" value="Model" style="swimlane;fontStyle=1;align=center;verticalAlign=top;childLayout=stackLayout;horizontal=1;startSize=26;horizontalStack=0;resizeParent=1;resizeParentMax=0;resizeLast=0;collapsible=1;marginBottom=0;whiteSpace=wrap;html=1;fillColor=#d5e8d4;gradientColor=#97d077;strokeColor=#82b366;" parent="WIyWlLk6GJQsqaUBKTNV-1" vertex="1">
          <mxGeometry x="710" y="320" width="240" height="380" as="geometry" />
        </mxCell>
        <mxCell id="JL4R2UDuWaDVUllbGv84-15" value="&lt;div style=&quot;line-height: 150%;&quot;&gt;cannot see the View nor can see the Controller&lt;/div&gt;" style="text;strokeColor=#666666;fillColor=#f5f5f5;align=left;verticalAlign=top;spacingLeft=4;spacingRight=4;overflow=hidden;rotatable=0;points=[[0,0.5],[1,0.5]];portConstraint=eastwest;whiteSpace=wrap;html=1;gradientColor=#b3b3b3;" parent="JL4R2UDuWaDVUllbGv84-14" vertex="1">
          <mxGeometry y="26" width="240" height="44" as="geometry" />
        </mxCell>
        <mxCell id="JL4R2UDuWaDVUllbGv84-16" value="" style="line;strokeWidth=1;fillColor=none;align=left;verticalAlign=middle;spacingTop=-1;spacingLeft=3;spacingRight=3;rotatable=0;labelPosition=right;points=[];portConstraint=eastwest;strokeColor=inherit;" parent="JL4R2UDuWaDVUllbGv84-14" vertex="1">
          <mxGeometry y="70" width="240" height="8" as="geometry" />
        </mxCell>
        <mxCell id="JL4R2UDuWaDVUllbGv84-17" value="&lt;div style=&quot;line-height: 150%;&quot;&gt;&lt;div&gt;&lt;span style=&quot;background-color: transparent; color: light-dark(rgb(0, 0, 0), rgb(255, 255, 255));&quot;&gt;+ Map map&lt;/span&gt;&lt;/div&gt;&lt;div&gt;&lt;span style=&quot;background-color: transparent; color: light-dark(rgb(0, 0, 0), rgb(255, 255, 255));&quot;&gt;+ Player player&lt;/span&gt;&lt;/div&gt;&lt;div&gt;&lt;span style=&quot;background-color: transparent; color: light-dark(rgb(0, 0, 0), rgb(255, 255, 255));&quot;&gt;+ Capital capital&lt;/span&gt;&lt;/div&gt;&lt;div&gt;+ MiniMap miniMap&lt;span style=&quot;background-color: transparent; color: light-dark(rgb(0, 0, 0), rgb(255, 255, 255));&quot;&gt;&lt;/span&gt;&lt;/div&gt;&lt;div&gt;&lt;span style=&quot;background-color: transparent; color: light-dark(rgb(0, 0, 0), rgb(255, 255, 255));&quot;&gt;+ SafariPark safariPark&lt;/span&gt;&lt;/div&gt;&lt;div&gt;&lt;div&gt;+ DayNightCycle dayNightCycle&lt;/div&gt;&lt;/div&gt;&lt;div&gt;&lt;span style=&quot;background-color: transparent; color: light-dark(rgb(0, 0, 0), rgb(255, 255, 255));&quot;&gt;&lt;br&gt;&lt;/span&gt;&lt;/div&gt;&lt;div&gt;&lt;div&gt;&lt;span style=&quot;background-color: transparent; color: light-dark(rgb(0, 0, 0), rgb(255, 255, 255));&quot;&gt;+ Jeep[] jeeps&lt;/span&gt;&lt;/div&gt;&lt;div&gt;&lt;/div&gt;&lt;/div&gt;&lt;div&gt;&lt;span style=&quot;background-color: transparent; color: light-dark(rgb(0, 0, 0), rgb(255, 255, 255));&quot;&gt;+ Road[] roads&lt;/span&gt;&lt;/div&gt;&lt;div&gt;&lt;span style=&quot;background-color: transparent; color: light-dark(rgb(0, 0, 0), rgb(255, 255, 255));&quot;&gt;+ Plant[] plants&lt;/span&gt;&lt;/div&gt;&lt;div&gt;&lt;div&gt;&lt;div&gt;+ Tourist[] tourists&lt;/div&gt;&lt;div&gt;&lt;/div&gt;&lt;/div&gt;&lt;/div&gt;&lt;div&gt;&lt;div&gt;&lt;/div&gt;&lt;/div&gt;&lt;div&gt;&lt;div&gt;&lt;span style=&quot;background-color: transparent; color: light-dark(rgb(0, 0, 0), rgb(255, 255, 255));&quot;&gt;+ Terrain[] terrains&lt;/span&gt;&lt;/div&gt;&lt;div&gt;&lt;div&gt;&lt;div&gt;&lt;span style=&quot;background-color: transparent; color: light-dark(rgb(0, 0, 0), rgb(255, 255, 255));&quot;&gt;+ Animal[] animals&lt;/span&gt;&lt;/div&gt;&lt;div&gt;&lt;div&gt;&lt;span style=&quot;background-color: transparent; color: light-dark(rgb(0, 0, 0), rgb(255, 255, 255));&quot;&gt;+ Ranger[] rangers&lt;/span&gt;&lt;/div&gt;&lt;/div&gt;&lt;/div&gt;&lt;/div&gt;&lt;div&gt;&lt;div&gt;+ Poacher[] poachers&lt;/div&gt;&lt;/div&gt;&lt;div&gt;+ WaterResource[] waterResources&lt;/div&gt;&lt;/div&gt;&lt;/div&gt;" style="text;strokeColor=#666666;fillColor=#f5f5f5;align=left;verticalAlign=top;spacingLeft=4;spacingRight=4;overflow=hidden;rotatable=0;points=[[0,0.5],[1,0.5]];portConstraint=eastwest;whiteSpace=wrap;html=1;fontColor=#333333;" parent="JL4R2UDuWaDVUllbGv84-14" vertex="1">
          <mxGeometry y="78" width="240" height="302" as="geometry" />
        </mxCell>
        <mxCell id="JL4R2UDuWaDVUllbGv84-18" value="" style="endArrow=open;endSize=12;dashed=1;html=1;rounded=0;entryX=0.5;entryY=0;entryDx=0;entryDy=0;exitX=0.498;exitY=1.002;exitDx=0;exitDy=0;exitPerimeter=0;" parent="WIyWlLk6GJQsqaUBKTNV-1" source="JL4R2UDuWaDVUllbGv84-8" target="JL4R2UDuWaDVUllbGv84-9" edge="1">
          <mxGeometry width="160" relative="1" as="geometry">
            <mxPoint x="480" y="520" as="sourcePoint" />
            <mxPoint x="620" y="530" as="targetPoint" />
          </mxGeometry>
        </mxCell>
        <mxCell id="JL4R2UDuWaDVUllbGv84-19" value="" style="endArrow=open;endSize=12;dashed=1;html=1;rounded=0;entryX=0.523;entryY=1.005;entryDx=0;entryDy=0;entryPerimeter=0;edgeStyle=orthogonalEdgeStyle;curved=1;" parent="WIyWlLk6GJQsqaUBKTNV-1" source="JL4R2UDuWaDVUllbGv84-12" target="JL4R2UDuWaDVUllbGv84-17" edge="1">
          <mxGeometry width="160" relative="1" as="geometry">
            <mxPoint x="479.62" y="780" as="sourcePoint" />
            <mxPoint x="479.62" y="860" as="targetPoint" />
            <Array as="points">
              <mxPoint x="836" y="790" />
            </Array>
          </mxGeometry>
        </mxCell>
        <mxCell id="JL4R2UDuWaDVUllbGv84-20" value="" style="endArrow=open;endSize=12;dashed=1;html=1;rounded=1;edgeStyle=orthogonalEdgeStyle;exitX=0.5;exitY=0;exitDx=0;exitDy=0;entryX=0.5;entryY=0;entryDx=0;entryDy=0;" parent="WIyWlLk6GJQsqaUBKTNV-1" source="JL4R2UDuWaDVUllbGv84-5" target="JL4R2UDuWaDVUllbGv84-14" edge="1">
          <mxGeometry width="160" relative="1" as="geometry">
            <mxPoint x="519.9999999999998" y="280" as="sourcePoint" />
            <mxPoint x="800.9142717633929" y="300" as="targetPoint" />
            <Array as="points">
              <mxPoint x="480" y="278" />
              <mxPoint x="830" y="278" />
            </Array>
          </mxGeometry>
        </mxCell>
      </root>
    </mxGraphModel>
  </diagram>
</mxfile>
